<svg width="20" height="20" viewBox="0 0 20 20" fill="none" xmlns="http://www.w3.org/2000/svg">
  <path d="M18.8994 11C19.4517 11 19.8994 10.5523 19.8994 9.99999C19.8994 9.4477 19.4517 8.99999 18.8994 8.99999H10.9999V1.10049C10.9999 0.548206 10.5522 0.100492 9.9999 0.100492C9.44761 0.100491 8.9999 0.548207 8.9999 1.10049L8.9999 8.99999L1.1004 8.99999C0.548116 8.99999 0.100403 9.4477 0.100403 9.99999C0.100403 10.5523 0.548118 11 1.1004 11H8.9999L8.9999 18.8995C8.9999 19.4518 9.44761 19.8995 9.9999 19.8995C10.5522 19.8995 10.9999 19.4518 10.9999 18.8995V11H18.8994Z" fill="#1A1A1A"/>
</svg>
